<?xml version="1.0" encoding="UTF-8" standalone="no"?>
<!-- Created with Inkscape (http://www.inkscape.org/) -->

<svg
   width="40.148315mm"
   height="35.139008mm"
   viewBox="0 0 40.148315 35.139008"
   version="1.1"
   id="svg1"
   xmlns="http://www.w3.org/2000/svg"
   xmlns:svg="http://www.w3.org/2000/svg">
  <defs
     id="defs1" />
  <g
     id="layer1"
     transform="translate(-118.9806,-201.08164)">
    <path
       style="fill:#1a1a1a;fill-opacity:1;stroke-width:4.309;stroke-linecap:round;stroke-linejoin:round"
       d="m 128.41172,216.88558 -8.9711,19.33507 18.60032,-10.48822 2.23988,-5.71657 3.85469,4.81837 14.99341,-2.47178 -13.51482,-11.25349 c 0,0 -2.47452,1.43674 -3.44021,0.76749 -1.36381,-0.94517 -0.69082,-4.92977 -0.69082,-4.92977 l -7.65252,-5.86504 -4.28399,11.42896 z"
       id="path59" />
    <path
       style="fill:#ececec;fill-opacity:1;stroke-width:4.309;stroke-linecap:round;stroke-linejoin:round"
       d="m 135.16896,207.27697 c 0,0 -7.33743,17.01716 -6.84766,17.02075 0.48976,0.004 6.01307,-1.68899 6.01307,-1.68899 l 3.55565,-6.315 3.32527,0.40236 6.52693,5.01871 2.59808,-0.59394 -8.0307,-6.63794 c 0,0 -1.92145,0.8271 -2.62623,0.2016 -1.24742,-1.10711 -0.90083,-3.70931 -0.90083,-3.70931 z"
       id="path60" />
    <path
       style="fill:#1a1a1a;fill-opacity:1;stroke-width:4.309;stroke-linecap:round;stroke-linejoin:round"
       d="m 118.9806,219.56088 14.32197,-10.55847 -0.72479,14.13676 -3.70487,-5.96367 z"
       id="path61" />
    <path
       style="fill:#ececec;fill-opacity:1;stroke-width:4.309;stroke-linecap:round;stroke-linejoin:round"
       d="m 122.30517,217.85427 c 0,0 10.00711,-6.93505 10.00711,-6.93505 l -0.37902,9.47328 -2.54439,-4.19605 z"
       id="path58" />
  </g>
</svg>
