<?xml version="1.0" encoding="UTF-8" standalone="no"?>
<!-- Created with Inkscape (http://www.inkscape.org/) -->

<svg
   width="40.148315mm"
   height="35.139008mm"
   viewBox="0 0 40.148315 35.139008"
   version="1.1"
   id="svg1"
   sodipodi:docname="icon.svg"
   inkscape:version="1.4.2 (f4327f4, 2025-05-13)"
   xmlns:inkscape="http://www.inkscape.org/namespaces/inkscape"
   xmlns:sodipodi="http://sodipodi.sourceforge.net/DTD/sodipodi-0.dtd"
   xmlns="http://www.w3.org/2000/svg"
   xmlns:svg="http://www.w3.org/2000/svg">
  <sodipodi:namedview
     id="namedview1"
     pagecolor="#ffffff"
     bordercolor="#000000"
     borderopacity="0.25"
     inkscape:showpageshadow="2"
     inkscape:pageopacity="0.0"
     inkscape:pagecheckerboard="0"
     inkscape:deskcolor="#d1d1d1"
     inkscape:document-units="mm"
     inkscape:zoom="2.4890843"
     inkscape:cx="74.525398"
     inkscape:cy="77.337677"
     inkscape:window-width="1920"
     inkscape:window-height="1147"
     inkscape:window-x="-8"
     inkscape:window-y="-8"
     inkscape:window-maximized="1"
     inkscape:current-layer="svg1" />
  <defs
     id="defs1" />
  <path
     style="fill:#ececec;fill-opacity:1;stroke-width:4.309;stroke-linecap:round;stroke-linejoin:round"
     d="M 9.43112,15.80394 0.46002,35.13901 19.06034,24.65079 21.30022,18.93422 25.15491,23.75259 40.14832,21.28081 26.6335,10.02732 c 0,0 -2.47452,1.43674 -3.44021,0.76749 C 21.82948,9.84964 22.50247,5.86504 22.50247,5.86504 L 14.84995,0 10.56596,11.42896 Z"
     id="path59" />
  <path
     style="fill:#333333;fill-opacity:1;stroke-width:4.309;stroke-linecap:round;stroke-linejoin:round"
     d="m 16.18836,6.19533 c 0,0 -7.33743,17.01716 -6.84766,17.02075 0.48976,0.004 6.01307,-1.68899 6.01307,-1.68899 l 3.55565,-6.315 3.32527,0.40236 6.52693,5.01871 2.59808,-0.59394 -8.0307,-6.63794 c 0,0 -1.92145,0.8271 -2.62623,0.2016 -1.24742,-1.10711 -0.90083,-3.70931 -0.90083,-3.70931 z"
     id="path60" />
  <path
     style="fill:#ececec;fill-opacity:1;stroke-width:4.309;stroke-linecap:round;stroke-linejoin:round"
     d="M 0,18.47924 14.32197,7.92077 13.59718,22.05753 9.89231,16.09386 Z"
     id="path61" />
  <path
     style="fill:#333333;fill-opacity:1;stroke-width:4.309;stroke-linecap:round;stroke-linejoin:round"
     d="m 3.32457,16.77263 c 0,0 10.00711,-6.93505 10.00711,-6.93505 l -0.37902,9.47328 -2.54439,-4.19605 z"
     id="path58" />
</svg>
